<?xml version="1.0" standalone="no"?>
<!DOCTYPE svg PUBLIC "-//W3C//DTD SVG 20010904//EN"
 "http://www.w3.org/TR/2001/REC-SVG-20010904/DTD/svg10.dtd">
<svg version="1.0" xmlns="http://www.w3.org/2000/svg"
 width="128.000000pt" height="128.000000pt" viewBox="0 0 128.000000 128.000000"
 preserveAspectRatio="xMidYMid meet">

<g transform="translate(0.000000,128.000000) scale(0.100000,-0.100000)"
fill="#000000" stroke="none">
<path d="M0 640 l0 -640 200 0 200 0 -14 23 c-26 38 -36 106 -25 165 10 50 -1
205 -17 247 -4 10 0 15 10 15 9 0 16 7 16 15 0 13 -4 14 -21 5 -15 -9 -28 -9
-50 0 -37 16 -49 31 -59 74 -8 37 6 60 42 67 13 3 15 8 8 19 -8 13 -13 13 -31
2 -11 -7 -23 -11 -26 -9 -10 10 18 47 36 47 10 0 24 7 31 15 16 19 31 20 24 1
-3 -8 -1 -17 5 -20 13 -8 23 40 20 97 -2 35 -6 44 -17 39 -9 -3 -13 -1 -9 5 4
6 0 13 -8 17 -20 7 -19 46 1 46 8 0 12 5 9 10 -4 6 -2 9 4 8 5 -2 29 26 53 61
56 83 109 113 185 106 69 -6 102 -15 138 -37 29 -17 48 -26 105 -51 14 -6 33
-11 43 -10 9 0 17 -6 17 -13 0 -7 8 -17 18 -23 14 -8 15 -12 5 -22 -18 -18
-16 -30 4 -22 12 5 15 2 10 -9 -4 -12 -1 -14 13 -11 15 4 18 1 15 -16 -2 -12
-7 -26 -10 -31 -3 -6 -3 -10 2 -10 4 0 13 -10 19 -23 9 -21 8 -23 -25 -25 -72
-5 -148 -4 -226 1 -91 6 -138 1 -129 -15 4 -6 2 -8 -4 -4 -19 11 -60 -15 -65
-43 -7 -34 0 -44 28 -37 17 4 28 0 37 -13 31 -45 116 -31 163 26 34 41 57 28
79 -47 10 -36 26 -71 35 -78 9 -8 10 -11 4 -7 -7 3 -13 1 -13 -4 0 -6 -9 -11
-21 -11 -12 0 -23 -8 -26 -20 -3 -12 -14 -20 -27 -20 -17 0 -18 2 -6 10 24 15
-16 25 -46 11 -20 -9 -26 -8 -30 4 -4 8 -4 22 0 30 10 27 -11 16 -48 -25 -33
-37 -41 -52 -37 -73 1 -5 -3 -6 -8 -3 -5 3 -15 -2 -22 -11 -12 -15 -12 -16 4
-10 15 6 18 2 15 -20 -2 -19 -11 -29 -34 -37 -28 -10 -75 -46 -59 -46 3 0 1
-9 -5 -20 -9 -16 -8 -20 5 -20 9 0 13 -4 10 -10 -3 -5 -1 -10 4 -10 6 0 11 9
11 20 0 11 -5 20 -11 20 -5 0 -8 4 -5 9 3 5 15 7 27 4 16 -4 17 -8 7 -14 -12
-8 -4 -13 17 -9 5 1 15 -7 23 -17 7 -10 23 -18 35 -19 51 -1 107 -17 107 -30
0 -7 -8 -26 -17 -41 -13 -20 -25 -27 -42 -25 -18 3 -22 0 -18 -12 8 -21 -1
-20 -46 4 -20 11 -37 16 -37 11 0 -5 9 -13 20 -16 11 -3 20 -10 20 -15 0 -18
-21 -20 -51 -5 -17 9 -33 14 -36 12 -2 -3 50 -31 116 -63 66 -33 118 -56 115
-53 -2 4 19 21 46 39 27 18 61 46 75 62 14 17 28 29 30 26 2 -2 5 -26 6 -53 3
-92 -14 -85 200 -85 l189 0 0 640 0 640 -640 0 -640 0 0 -640z m485 560 c-3
-5 2 -10 11 -10 10 0 15 -3 11 -6 -9 -9 -48 6 -42 17 4 5 11 9 16 9 6 0 7 -4
4 -10z m-86 -52 c-2 -2 -23 -21 -47 -43 -23 -21 -42 -36 -42 -33 0 11 72 78
83 78 6 0 8 -1 6 -2z m-134 -194 c-15 -51 -25 -66 -25 -39 0 30 22 95 31 89 4
-2 2 -25 -6 -50z m55 -24 c0 -5 -8 -10 -17 -10 -15 0 -16 2 -3 10 19 12 20 12
20 0z m578 -361 c-10 -7 -9 -9 4 -9 9 0 24 -7 32 -16 13 -12 16 -12 16 -2 0 8
-5 19 -12 26 -9 9 -8 12 4 12 9 0 18 -6 20 -12 5 -14 -18 -78 -28 -78 -15 0
-44 22 -39 31 4 5 2 9 -3 9 -6 0 -14 13 -20 28 -9 27 -8 29 15 24 18 -3 21 -7
11 -13z m-210 -101 c2 -9 -9 -20 -28 -28 -17 -7 -37 -22 -46 -34 l-15 -21 4
23 c4 29 53 85 69 80 7 -3 14 -12 16 -20z m-48 -104 c0 -8 -19 -13 -24 -6 -3
5 1 9 9 9 8 0 15 -2 15 -3z m-69 -23 c-11 -7 -10 -10 5 -13 15 -4 14 -6 -9
-13 -15 -4 -31 -5 -34 -1 -9 9 18 36 36 36 13 0 13 -2 2 -9z m39 -236 c0 -8
-7 -15 -15 -15 -13 0 -14 3 -3 15 16 18 18 18 18 0z"/>
<path d="M294 600 c-43 -17 -40 -56 5 -67 14 -3 29 -11 33 -17 4 -6 10 -8 13
-4 3 3 -1 13 -9 21 -11 11 -14 25 -10 46 7 33 3 35 -32 21z"/>
<path d="M275 510 c4 -6 11 -8 16 -5 14 9 11 15 -7 15 -8 0 -12 -5 -9 -10z"/>
<path d="M477 229 c4 -13 8 -18 11 -10 2 7 -1 18 -6 23 -8 8 -9 4 -5 -13z"/>
</g>
</svg>
